<svg width="195" height="121" viewBox="0 0 195 121" fill="none" xmlns="http://www.w3.org/2000/svg">
<path d="M194.935 0.0810547V56.841H180.884L175.151 22.8661H174.425L177.251 56.841H164.331V0.0810547H178.381L184.437 34.2992H185.164L182.015 0.0810547H194.935Z" fill="#AAA986"/>
<path d="M158.284 0L163.129 56.841H150.209L149.563 43.9484H146.656L146.011 56.841H133.091L138.178 0H158.284ZM148.998 32.6775L148.514 22.4607H147.706L147.141 32.6775H148.998Z" fill="#AAA986"/>
<path d="M135.575 11.352H127.823V56.841H114.903V11.352H107.071V0.0810547H135.575V11.352Z" fill="#AAA986"/>
<path d="M90.8631 0C95.6003 0 99.2609 1.27034 101.845 3.81102C104.429 6.29765 105.721 10.1087 105.721 15.2441V15.5684C105.721 17.8929 105.452 19.9471 104.913 21.7309C104.429 23.4608 103.783 24.9203 102.975 26.1096C102.168 27.2448 101.28 28.1367 100.311 28.7854C99.3416 29.38 98.3995 29.7044 97.4844 29.7584V30.6504C98.3995 30.7044 99.3416 31.0828 100.311 31.7856C101.28 32.4342 102.168 33.3532 102.975 34.5425C103.783 35.7317 104.429 37.1913 104.913 38.9211C105.452 40.5969 105.721 42.4889 105.721 44.5971V45.2458C105.721 47.5702 105.748 49.6514 105.801 51.4894C105.909 53.3273 106.151 55.1112 106.528 56.841H93.6893C93.3124 55.1112 93.0702 53.3003 92.9625 51.4083C92.9087 49.4622 92.8818 47.381 92.8818 45.1647V38.5968C92.8818 37.5697 92.7203 36.8669 92.3973 36.4885C92.0743 36.0561 91.5091 35.8398 90.7016 35.8398H89.3289V56.841H76.4092V0H90.8631ZM89.3289 24.5689H90.7016C91.5091 24.5689 92.0743 24.3527 92.3973 23.9203C92.7203 23.4878 92.8818 22.758 92.8818 21.7309V14.0278C92.8818 13.0548 92.7203 12.352 92.3973 11.9196C92.0743 11.4871 91.5091 11.2709 90.7016 11.2709H89.3289V24.5689Z" fill="#AAA986"/>
<path d="M66.7761 11.352V21.4066H74.5279V32.6775H66.7761V45.5701H74.7702V56.841H53.8564V0.0810547H74.6894V11.352H66.7761Z" fill="#AAA986"/>
<path d="M44.2234 11.352V21.4066H51.9752V32.6775H44.2234V45.5701H52.2174V56.841H31.3037V0.0810547H52.1367V11.352H44.2234Z" fill="#AAA986"/>
<path d="M12.9197 22.8661H13.9694L16.1496 0.0810547H29.796L24.5474 28.461L30.1998 56.7599H16.4726L13.9694 34.0559H12.9197V56.7599H0V0.0810547H12.9197V22.8661Z" fill="#AAA986"/>
<path d="M194.934 63.4292V120.189H180.436V63.4292H194.934Z" fill="#AAA986"/>
<path d="M170.157 63.4292V108.918H179.037V120.189H155.658V63.4292H170.157Z" fill="#AAA986"/>
<path d="M153.608 63.4292V120.189H139.109V63.4292H153.608Z" fill="#AAA986"/>
<path d="M120.817 63.4292C126.133 63.4292 130.241 65.0509 133.141 68.2943C136.041 71.4837 137.491 76.5651 137.491 83.5384V83.7006C137.491 87.2684 137.128 90.2685 136.403 92.7011C135.739 95.1337 134.712 97.1068 133.322 98.6204C131.933 100.08 130.181 101.134 128.067 101.783C125.952 102.431 123.475 102.756 120.636 102.756H119.095V120.189H104.597V63.4292H120.817ZM119.095 91.4848H120.636C121.603 91.4848 122.237 91.2686 122.539 90.8361C122.901 90.3496 123.083 89.5658 123.083 88.4847V77.8624C123.083 76.6732 122.901 75.8623 122.539 75.4299C122.237 74.9434 121.603 74.7001 120.636 74.7001H119.095V91.4848Z" fill="#AAA986"/>
<path d="M86.3045 63.4292C91.6207 63.4292 95.7286 65.0509 98.6284 68.2943C101.528 71.4837 102.978 76.5651 102.978 83.5384V83.7006C102.978 87.2684 102.616 90.2685 101.891 92.7011C101.226 95.1337 100.199 97.1068 98.8096 98.6204C97.4202 100.08 95.6682 101.134 93.5538 101.783C91.4394 102.431 88.9626 102.756 86.1232 102.756H84.5827V120.189H70.084V63.4292H86.3045ZM84.5827 91.4848H86.1232C87.0898 91.4848 87.7241 91.2686 88.0262 90.8361C88.3887 90.3496 88.5699 89.5658 88.5699 88.4847V77.8624C88.5699 76.6732 88.3887 75.8623 88.0262 75.4299C87.7241 74.9434 87.0898 74.7001 86.1232 74.7001H84.5827V91.4848Z" fill="#AAA986"/>
<path d="M49.5378 63.4292V107.053C49.5378 108.026 49.719 108.729 50.0815 109.161C50.5044 109.54 50.9877 109.729 51.5314 109.729C52.0751 109.729 52.5282 109.54 52.8906 109.161C53.3135 108.729 53.525 108.026 53.525 107.053V63.4292H68.0237V105.999C68.0237 110.918 66.5436 114.648 63.5835 117.189C60.6233 119.73 56.5153 121 51.2595 121C46.0641 121 42.0468 119.757 39.2075 117.27C36.4285 114.729 35.0391 110.972 35.0391 105.999V63.4292H49.5378Z" fill="#AAA986"/>
<path d="M14.4987 86.2143H15.6768L18.1234 63.4292H33.4377L27.5476 91.8092L33.8908 120.108H18.4859L15.6768 97.4041H14.4987V120.108H0V63.4292H14.4987V86.2143Z" fill="#AAA986"/>
</svg>
