<svg width="96" height="60" viewBox="0 0 96 60" fill="none" xmlns="http://www.w3.org/2000/svg">
<path d="M96 0.0399323V27.9927H89.0807L86.2573 11.261H85.8994L87.2912 27.9927H80.9286V0.0399323H87.8479L90.8304 16.8914H91.1883L89.6374 0.0399323H96Z" fill="#F468BB"/>
<path d="M77.9508 0L80.3368 27.9927H73.9742L73.656 21.6434H72.2245L71.9063 27.9927H65.5437L68.049 0H77.9508ZM73.3777 16.0928L73.1391 11.0613H72.7414L72.4631 16.0928H73.3777Z" fill="#F468BB"/>
<path d="M66.7668 5.59055H62.9493V27.9927H56.5867V5.59055H52.7294V0.0399323H66.7668V5.59055Z" fill="#F468BB"/>
<path d="M44.7475 0C47.0805 0 48.8832 0.625609 50.1558 1.87683C51.4283 3.10142 52.0645 4.97825 52.0645 7.50731V7.66704C52.0645 8.81177 51.932 9.82339 51.6669 10.7019C51.4283 11.5538 51.1101 12.2726 50.7125 12.8583C50.3148 13.4173 49.8774 13.8566 49.4002 14.176C48.923 14.4689 48.4591 14.6286 48.0084 14.6552V15.0945C48.4591 15.1211 48.923 15.3075 49.4002 15.6535C49.8774 15.973 50.3148 16.4256 50.7125 17.0112C51.1101 17.5969 51.4283 18.3157 51.6669 19.1676C51.932 19.9929 52.0645 20.9246 52.0645 21.9629V22.2823C52.0645 23.4271 52.0778 24.452 52.1043 25.3571C52.1573 26.2623 52.2766 27.1408 52.4622 27.9927H46.1394C45.9538 27.1408 45.8345 26.249 45.7815 25.3172C45.755 24.3588 45.7417 23.3339 45.7417 22.2424V19.0079C45.7417 18.5021 45.6622 18.156 45.5031 17.9696C45.344 17.7566 45.0657 17.6502 44.668 17.6502H43.992V27.9927H37.6294V0H44.7475ZM43.992 12.0995H44.668C45.0657 12.0995 45.344 11.9931 45.5031 11.7801C45.6622 11.5671 45.7417 11.2077 45.7417 10.7019V6.90832C45.7417 6.42913 45.6622 6.08305 45.5031 5.87008C45.344 5.6571 45.0657 5.55062 44.668 5.55062H43.992V12.0995Z" fill="#F468BB"/>
<path d="M32.8854 5.59055V10.5422H36.703V16.0928H32.8854V22.4421H36.8223V27.9927H26.5228V0.0399323H36.7825V5.59055H32.8854Z" fill="#F468BB"/>
<path d="M21.7788 5.59055V10.5422H25.5964V16.0928H21.7788V22.4421H25.7157V27.9927H15.4162V0.0399323H25.6759V5.59055H21.7788Z" fill="#F468BB"/>
<path d="M6.36259 11.261H6.87956L7.95324 0.0399323H14.6737L12.0889 14.0163L14.8726 27.9527H8.11231L6.87956 16.7716H6.36259V27.9527H0V0.0399323H6.36259V11.261Z" fill="#F468BB"/>
<path d="M96 31.2372V59.1899H88.8598V31.2372H96Z" fill="#F468BB"/>
<path d="M83.7974 31.2372V53.6393H88.1708V59.1899H76.6572V31.2372H83.7974Z" fill="#F468BB"/>
<path d="M75.6479 31.2372V59.1899H68.5076V31.2372H75.6479Z" fill="#F468BB"/>
<path d="M59.4993 31.2372C62.1174 31.2372 64.1405 32.0358 65.5686 33.6331C66.9966 35.2038 67.7106 37.7062 67.7106 41.1404V41.2203C67.7106 42.9773 67.5321 44.4548 67.1751 45.6528C66.8478 46.8508 66.3421 47.8225 65.6578 48.5679C64.9735 49.2867 64.1108 49.8058 63.0695 50.1252C62.0282 50.4447 60.8084 50.6044 59.4101 50.6044H58.6514V59.1899H51.5112V31.2372H59.4993ZM58.6514 45.0538H59.4101C59.8861 45.0538 60.1985 44.9473 60.3473 44.7344C60.5258 44.4948 60.615 44.1088 60.615 43.5763V38.3452C60.615 37.7595 60.5258 37.3602 60.3473 37.1472C60.1985 36.9076 59.8861 36.7878 59.4101 36.7878H58.6514V45.0538Z" fill="#F468BB"/>
<path d="M42.5029 31.2372C45.121 31.2372 47.1441 32.0358 48.5721 33.6331C50.0002 35.2038 50.7142 37.7062 50.7142 41.1404V41.2203C50.7142 42.9773 50.5357 44.4548 50.1787 45.6528C49.8514 46.8508 49.3456 47.8225 48.6614 48.5679C47.9771 49.2867 47.1143 49.8058 46.073 50.1252C45.0318 50.4447 43.812 50.6044 42.4137 50.6044H41.655V59.1899H34.5148V31.2372H42.5029ZM41.655 45.0538H42.4137C42.8897 45.0538 43.2021 44.9473 43.3508 44.7344C43.5293 44.4948 43.6186 44.1088 43.6186 43.5763V38.3452C43.6186 37.7595 43.5293 37.3602 43.3508 37.1472C43.2021 36.9076 42.8897 36.7878 42.4137 36.7878H41.655V45.0538Z" fill="#F468BB"/>
<path d="M24.3961 31.2372V52.7209C24.3961 53.2 24.4853 53.5461 24.6638 53.7591C24.8721 53.9455 25.1101 54.0386 25.3778 54.0386C25.6456 54.0386 25.8687 53.9455 26.0472 53.7591C26.2555 53.5461 26.3596 53.2 26.3596 52.7209V31.2372H33.4999V52.2017C33.4999 54.6243 32.771 56.4612 31.3132 57.7124C29.8554 58.9636 27.8323 59.5892 25.244 59.5892C22.6854 59.5892 20.7069 58.9769 19.3086 57.7524C17.9401 56.5011 17.2558 54.6509 17.2558 52.2017V31.2372H24.3961Z" fill="#F468BB"/>
<path d="M7.14024 42.4582H7.72039L8.9253 31.2372H16.4672L13.5665 45.2136L16.6903 59.15H9.10381L7.72039 47.9689H7.14024V59.15H0V31.2372H7.14024V42.4582Z" fill="#F468BB"/>
</svg>
