<svg width="83" height="95" viewBox="0 0 83 95" fill="none" xmlns="http://www.w3.org/2000/svg">
<path d="M71.2584 4.86972C78.7387 10.3512 79.1447 19.1485 80.9845 26.9765C83.7166 38.6014 83.3759 50.5619 78.8094 61.649C76.1911 68.0058 71.3538 73.4487 66.9184 79.6081C64.5722 80.4168 62.7789 80.8031 61.0824 81.4452C55.1488 83.6909 51.6175 80.1643 48.9241 75.9056C47.7096 73.9852 47.994 71.1169 47.5015 68.0816C47.7793 68.1242 46.7329 68.2823 46.2327 67.8326C43.8305 65.6734 39.3336 62.9062 39.678 61.1657C40.8358 55.3155 37.5904 55.9112 34.1365 55.914C34.1337 55.911 34.1313 55.9087 34.1319 55.5342C34.1334 54.4105 34.1343 53.6613 34.3867 52.7267C35.1371 51.6651 35.636 50.7889 36.4797 49.8785C43.9638 46.0959 46.7186 38.9553 50.4453 32.3656C49.0975 38.2679 47.575 44.1128 44.7308 49.2219C42.3296 53.5353 42.0578 56.8568 45.2709 60.4832C46.3953 59.8051 47.7685 58.3712 48.4799 58.6466C53.0048 60.3982 51.6807 57.1308 51.7043 55.1016C51.7307 52.8279 50.9893 50.3401 51.6782 48.3191C53.4692 43.0656 55.8577 38.0156 58.0138 32.8869C59.1523 30.179 60.3033 27.4764 61.4487 24.7714C61.0041 24.4192 60.5595 24.0669 60.115 23.7147C57.6681 25.0036 55.2212 26.2925 52.1283 27.9218C52.1283 25.1482 52.1283 23.0275 52.1297 20.4907C52.1343 18.6872 52.1375 17.2998 52.5235 15.861C53.6477 14.5025 54.9242 13.24 55.0381 11.8802C55.5356 5.94135 52.8709 2.5715 46.1509 0.0209961C52.3652 0.0355871 58.5796 0.0501745 64.9437 0.778667C64.1988 3.06437 63.304 4.63616 61.8955 7.11048C65.6934 6.20156 68.4759 5.53564 71.2584 4.86972Z" fill="#FCA7CF"/>
<path d="M25.1305 94.7458C17.068 92.3625 11.0447 87.205 6.33447 80.2914C11.866 77.0419 17.5227 76.184 23.366 76.1183C25.9547 76.0892 28.5426 75.9827 31.1252 76.2958C30.7916 78.4239 30.4638 80.1676 29.8244 82.0636C24.4196 85.1221 24.9911 90.0095 25.1305 94.7458Z" fill="#FEE8F2"/>
<path d="M23.0927 21.7816C23.0927 21.7816 23.1242 21.3662 23.5073 21.1158C24.6189 19.8441 25.3472 18.8229 26.0756 17.8017C26.0756 17.8017 26.1234 17.904 26.429 17.8707C30.1983 15.5247 33.662 13.212 37.4595 11.0432C46.5031 11.478 46.7331 11.8904 43.2823 20.9523C43.1698 21.2476 43.1814 21.5902 42.8843 21.9107C42.4664 21.9108 42.2992 21.9108 42.1309 21.5149C42.3826 18.0037 40.4232 17.1239 37.8454 16.9427C35.0181 16.7439 33.9925 18.2976 33.7853 20.9454C29.3883 25.2803 24.5593 29.1103 21.5805 34.055C19.8023 37.0068 18.5025 39.2394 15.1416 39.5645C15.4723 38.1125 15.8027 37.0114 16.43 35.7675C17.5286 34.3867 18.3302 33.1486 19.4047 31.6769C20.816 28.2228 21.9544 25.0022 23.0927 21.7816Z" fill="#FC8EBF"/>
<path d="M34.1391 55.917C37.5902 55.9112 40.8356 55.3155 39.6779 61.1658C39.3334 62.9062 43.8303 65.6734 46.2325 67.8327C46.7327 68.2823 47.7791 68.1243 47.5013 68.0816C47.9939 71.1169 47.7094 73.9853 48.9239 75.9056C51.6173 80.1643 55.1486 83.6909 61.0822 81.4452C62.7787 80.8031 64.5721 80.4168 66.7188 79.9008C65.0646 81.8145 63.0126 83.7404 60.3559 85.9583C59.6068 86.8713 59.4624 87.4923 59.3181 88.1133C59.3181 88.1133 59.1449 88.045 58.945 87.987C58.5472 87.9038 58.3492 87.8787 57.9964 87.5477C55.6077 86.1283 53.3737 85.0148 51.1011 83.5493C45.9589 76.3921 40.8554 69.5867 35.6724 62.6754C31.9239 63.6425 27.5283 64.7765 23.2935 65.5993C24.9684 64.4047 26.3924 63.2672 28.0156 62.6908C31.3496 61.507 33.6723 59.6019 34.1391 55.917Z" fill="#FDB5D7"/>
<path d="M16.1333 35.9103C15.8029 37.0114 15.4725 38.1125 15.1328 39.9395C14.4121 42.5047 13.8386 44.4127 12.9621 46.1695C10.7759 50.5515 8.37391 54.8264 6.21023 59.219C4.71165 62.2613 5.57847 64.3376 9.13038 65.2474C9.13244 66.0226 9.13356 66.4656 8.75765 66.8679C3.42379 66.2553 2.56922 62.9806 3.09104 58.799C5.10874 53.1204 6.60477 47.1813 9.27709 41.8296C12.5656 35.2438 16.8181 29.1373 20.7145 22.8612C21.0074 22.3895 21.7851 22.2186 22.7151 21.8447C21.9546 25.0022 20.8162 28.2228 19.0488 31.7169C17.6576 33.297 16.8954 34.6037 16.1333 35.9103Z" fill="#FD9AC7"/>
<path d="M51.1398 83.9012C53.3738 85.0148 55.6077 86.1283 57.9978 87.843C58.175 88.6389 58.196 88.8336 58.2171 89.0284C58.2171 89.0284 58.1546 88.9331 57.8932 88.9519C57.1255 89.2707 56.6193 89.5708 56.1131 89.8709C56.1131 89.8709 55.7792 90.0523 55.19 89.9982C52.7773 88.9375 50.9539 87.9308 48.8093 86.8952C47.7019 86.2156 46.9156 85.5647 46.0904 84.5551C41.4151 81.0988 36.7787 78.0013 32.142 74.5296C32.142 73.4072 32.1422 72.659 32.4279 71.7683C33.1315 71.0149 33.5497 70.4038 33.9679 69.7927C33.6756 69.4433 33.3833 69.094 33.0911 68.7447C31.7685 69.7966 30.4459 70.8485 28.7927 71.9012C28.0214 71.9029 27.5807 71.9037 27.0802 71.5614C25.0025 68.6975 23.5148 69.9358 21.7899 72.0569C18.6823 72.113 15.9154 72.0201 13.1424 71.9206C13.1364 71.9142 13.1303 71.9069 13.2383 71.648C13.6077 70.8944 13.8691 70.3996 14.3739 69.8975C14.6173 69.8902 15.1043 69.8836 15.5416 69.8936C22.1103 68.7827 28.2417 67.6617 34.6807 66.4845C36.1123 75.7833 44.3534 79.1487 51.1398 83.9012Z" fill="#FDCDE4"/>
<path d="M46.1289 84.9138C46.9153 85.5647 47.7016 86.2155 48.8102 87.2939C49.1315 88.7863 49.1307 89.8511 48.8309 91.0395C47.7052 91.0023 46.6088 91.1262 46.0928 90.6374C39.8486 84.7234 34.9799 85.7263 31.1303 93.8123C29.3914 94.1748 27.6525 94.5373 25.5219 94.8228C24.9909 90.0095 24.4194 85.1221 30.1654 82.2393C35.9217 83.1463 41.0253 84.03 46.1289 84.9138Z" fill="#FEE0EE"/>
<path d="M15.1044 69.8835C15.1044 69.8835 14.6174 69.8901 13.9754 69.8959C9.29279 69.4455 5.25267 67.0982 1.21097 69.8979C-0.728629 66.0417 -0.422742 62.4316 2.74305 58.9479C2.56927 62.9805 3.42383 66.2552 9.12282 66.8318C11.2866 66.5256 12.7082 66.2148 14.5215 65.906C18.7673 64.6039 23.7169 64.7414 24.1302 58.9081C24.133 58.9102 24.1322 58.9099 24.4956 58.8709C27.9497 57.8575 31.0405 56.8831 34.1313 55.9087C34.1313 55.9087 34.1337 55.911 34.1365 55.914C33.6725 59.6018 31.3498 61.507 28.0158 62.6908C26.3925 63.2671 24.9686 64.4046 23.027 65.7831C21.6472 66.6148 20.6486 66.8594 19.7523 67.3085C18.1701 68.1012 16.6503 69.0184 15.1044 69.8835Z" fill="#FCA7CF"/>
<path d="M37.1259 10.8991C33.6622 13.2119 30.1984 15.5247 26.3784 17.8458C29.5579 13.5877 32.8056 9.02808 36.7379 5.16542C39.0751 2.86962 42.49 1.67094 45.7856 0C52.8708 2.57151 55.5355 5.94136 55.038 11.8802C54.9241 13.24 53.6476 14.5025 52.5208 15.426C51.8288 12.6007 51.7822 10.0853 51.1177 7.74535C50.7218 6.35134 49.58 4.48992 48.3837 4.12831C44.6176 2.98997 38.6168 6.85133 37.1259 10.8991Z" fill="#FAA5CC"/>
<path d="M27.1397 71.9045C27.5804 71.9037 28.0212 71.9029 29.17 71.905C30.6327 71.9088 31.3875 71.9098 32.1422 71.9108C32.142 72.659 32.1417 73.4073 32.031 74.7501C31.7196 75.6206 31.4563 75.8095 31.1306 75.9114C28.5423 75.9828 25.9545 76.0893 23.3657 76.1184C17.5225 76.1841 11.8658 77.042 6.26572 79.9444C5.5373 80.0247 5.28073 79.8889 5.21143 79.0169C6.20486 75.7342 7.22153 73.3135 10.908 73.7842C11.565 73.868 12.397 72.5811 13.1482 71.9272C15.9151 72.0201 18.682 72.1131 22.207 72.0582C24.3567 71.9084 25.7482 71.9065 27.1397 71.9045Z" fill="#FEE0EE"/>
<path d="M31.5879 93.8961C34.9803 85.7264 39.849 84.7235 46.0932 90.6375C46.6093 91.1262 47.7056 91.0023 49.0695 91.173C49.8085 91.4816 50.0102 91.7803 50.2119 92.079C44.1563 92.7126 38.1007 93.3462 31.5879 93.8961Z" fill="#FBE7F2"/>
<path d="M13.1422 71.9206C12.3971 72.5811 11.5651 73.868 10.9081 73.7841C7.22161 73.3134 6.20494 75.7341 5.15944 78.7949C3.72092 76.9815 2.43742 74.8131 1.61475 72.2789C5.76041 71.911 9.44524 71.9089 13.1301 71.9069C13.1301 71.9069 13.1362 71.9142 13.1422 71.9206Z" fill="#FDCDE4"/>
<path d="M13.238 71.648C9.44513 71.9089 5.7603 71.9109 1.67016 71.9146C1.18438 71.4669 1.1039 71.0176 1.11701 70.2331C5.25229 67.0982 9.29241 69.4455 13.7317 69.9032C13.8688 70.3995 13.6074 70.8943 13.238 71.648Z" fill="#FEBFDC"/>
<path d="M50.5966 92.0728C50.0099 91.7803 49.8082 91.4816 49.3682 91.0494C49.1309 89.8512 49.1317 88.7863 49.1313 87.3228C50.9537 87.9307 52.7772 88.9374 55.002 89.9698C53.9295 90.6858 52.4556 91.3761 50.5966 92.0728Z" fill="#F8DBEB"/>
<path d="M25.7153 17.8544C25.3471 18.8229 24.6188 19.8441 23.5479 20.9115C23.9219 19.9408 24.6385 18.9239 25.7153 17.8544Z" fill="#FAA5CC"/>
<path d="M59.6133 87.9743C59.4625 87.4923 59.6069 86.8713 60.055 86.106C60.2087 86.5862 60.0585 87.2107 59.6133 87.9743Z" fill="#FDCDE4"/>
<path d="M56.437 89.9574C56.6193 89.5709 57.1255 89.2708 57.9415 88.9819C57.7546 89.3434 57.2578 89.6936 56.437 89.9574Z" fill="#F8DBEB"/>
<path d="M58.468 88.949C58.1957 88.8336 58.1747 88.6388 58.1523 88.1488C58.349 87.8786 58.547 87.9037 59.0368 88.0009C59.1256 88.3385 58.9224 88.6041 58.468 88.949Z" fill="#F8DBEB"/>
<path d="M52.1282 20.907C52.1282 23.0276 52.1282 25.1483 52.1282 27.9219C55.2211 26.2926 57.668 25.0037 60.1149 23.7148C60.5594 24.067 61.004 24.4193 61.4486 24.7715C60.3032 27.4765 59.1522 30.1791 58.0138 32.887C55.8576 38.0157 53.4691 43.0657 51.6781 48.3192C50.9892 50.3402 51.7306 52.828 51.7042 55.1017C51.6806 57.1309 53.0048 60.3983 48.4799 58.6467C47.7684 58.3713 46.3952 59.8053 45.2709 60.4833C42.0577 56.8569 42.3295 53.5354 44.7307 49.222C47.5749 44.1129 49.0974 38.2681 50.4452 32.3657C46.7185 38.9555 43.9637 46.096 36.4788 49.628C36.1327 49.2445 36.1323 49.0774 36.2802 48.6065C39.0978 43.3391 41.6717 38.3209 44.4652 33.4282C46.8904 29.1807 49.5642 25.0752 52.1282 20.907Z" fill="#FDA0CB"/>
<path d="M52.1296 20.4908C49.5642 25.0752 46.8904 29.1807 44.4652 33.4282C41.6717 38.3209 39.0978 43.3391 35.8958 48.6008C33.6194 48.5693 31.8758 48.2398 30.1699 47.5481C31.7175 45.6465 32.9636 43.5855 34.786 42.6638C40.6534 39.696 45.4183 28.3391 43.1353 21.9107C43.1815 21.5902 43.1699 21.2476 43.2824 20.9523C46.7332 11.8904 46.5032 11.478 37.4596 11.0432C38.6168 6.85142 44.6176 2.99006 48.3837 4.12841C49.58 4.49001 50.7218 6.35143 51.1177 7.74544C51.7821 10.0854 51.8288 12.6008 52.138 15.4774C52.1374 17.2999 52.1342 18.6873 52.1296 20.4908Z" fill="#FC99C6"/>
<path d="M34.1315 55.5342C31.0401 56.8831 27.9493 57.8576 24.4941 58.5051C24.4636 57.0889 24.7976 55.9994 25.4524 54.8689C26.2273 54.1895 26.6813 53.5511 27.4683 52.9124C28.2451 52.9117 28.689 52.9111 29.5497 52.9108C31.3559 52.9114 32.7454 52.9118 34.1348 52.9122C34.1339 53.6614 34.133 54.4105 34.1315 55.5342Z" fill="#FDA0CB"/>
<path d="M34.3865 52.7268C32.7456 52.9118 31.3562 52.9114 29.55 52.5108C29.1332 51.0442 29.1333 49.9777 29.2412 48.6919C29.5482 48.1989 29.8093 48.0115 30.1323 47.9103C31.8758 48.2398 33.6194 48.5693 35.7473 48.9045C36.1322 49.0774 36.1327 49.2444 36.134 49.6622C35.6359 50.789 35.137 51.6652 34.3865 52.7268Z" fill="#FC9AC8"/>
<path d="M31.125 76.2958C31.4564 75.8094 31.7197 75.6205 32.0313 75.1241C36.7785 78.0013 41.4149 81.0988 46.0902 84.5551C41.0254 84.0301 35.9218 83.1463 30.477 82.087C30.4636 80.1676 30.7915 78.4239 31.125 76.2958Z" fill="#FED9EA"/>
<path d="M9.12927 64.9152C5.5783 64.3377 4.71147 62.2614 6.21005 59.219C8.37373 54.8264 10.7757 50.5516 12.9619 46.1695C13.8384 44.4127 14.4119 42.5047 15.1323 40.2905C18.5025 39.2394 19.8023 37.0068 21.5805 34.0551C24.5593 29.1104 29.3883 25.2803 33.786 20.9461C34.1334 20.9111 34.136 20.9138 34.1352 21.3192C33.4189 24.0147 32.6608 26.2925 31.9977 28.5976C31.0104 32.0294 30.0902 35.4806 29.1392 39.3173C28.1369 43.112 27.1367 46.5131 26.1351 50.1628C26.1337 50.4114 26.1308 50.9087 25.7609 50.9166C20.4315 53.347 15.1894 55.282 13.5716 61.6451C13.2214 63.0226 10.6679 63.8399 9.12927 64.9152Z" fill="#FB86BB"/>
<path d="M26.1367 49.9141C27.1369 46.513 28.137 43.1119 29.388 39.3138C29.6389 38.9167 30.1364 38.9123 30.4844 38.8765C33.5975 35.1942 36.3625 31.5476 39.1284 27.5273C39.1321 26.4062 39.135 25.6588 39.4777 24.8771C40.5891 23.8654 41.3606 22.888 42.1322 21.9107C42.2994 21.9107 42.4665 21.9107 42.8845 21.9106C45.4183 28.339 40.6535 39.6959 34.786 42.6637C32.9637 43.5854 31.7175 45.6464 30.17 47.548C29.8094 48.0114 29.5483 48.1989 28.9454 48.8151C27.74 49.4098 26.9384 49.662 26.1367 49.9141Z" fill="#FC8FC1"/>
<path d="M42.1308 21.5149C41.3604 22.8881 40.5889 23.8654 39.1241 24.838C36.9992 23.5267 35.5676 22.2202 34.1359 20.9137L34.1326 20.9103C33.9924 18.2975 35.0181 16.7438 37.8454 16.9426C40.4231 17.1238 42.3826 18.0036 42.1308 21.5149Z" fill="#FB86BB"/>
<path d="M16.4302 35.7675C16.8954 34.6037 17.6576 33.297 18.7759 31.9504C18.3304 33.1486 17.5287 34.3867 16.4302 35.7675Z" fill="#FC99C6"/>
<path d="M15.5415 69.8937C16.6501 69.0185 18.1699 68.1013 19.7521 67.3085C20.6484 66.8595 21.647 66.6148 22.8661 66.0943C27.5283 64.7765 31.9239 63.6425 35.6724 62.6754C40.8554 69.5868 45.9589 76.3921 51.1011 83.5494C44.3533 79.1487 36.1122 75.7834 34.6806 66.4845C28.2416 67.6617 22.1102 68.7827 15.5415 69.8937Z" fill="#FEBFDC"/>
<path d="M9.13037 65.2474C10.6681 63.8398 13.2216 63.0225 13.5718 61.645C15.1896 55.2819 20.4317 53.347 25.7621 51.2501C26.1327 52.0207 26.1324 52.4654 25.8867 53.0774C25.4716 53.7997 25.3018 54.3548 25.1319 54.91C24.7979 55.9994 24.464 57.0889 24.1311 58.5441C24.1322 58.91 24.133 58.9102 23.7471 58.9095C20.284 61.2406 17.2069 63.5723 14.1297 65.904C12.7081 66.2148 11.2865 66.5257 9.4998 66.8725C9.13355 66.4656 9.13242 66.0226 9.13037 65.2474Z" fill="#FC8FC1"/>
<path d="M32.4276 71.7684C31.3875 71.9098 30.6327 71.9088 29.5005 71.9041C30.4456 70.8485 31.7682 69.7966 33.0908 68.7448C33.383 69.0941 33.6753 69.4434 33.9676 69.7927C33.5494 70.4038 33.1312 71.0149 32.4276 71.7684Z" fill="#FED9EA"/>
<path d="M27.08 71.5614C25.7483 71.9064 24.3568 71.9083 22.5479 71.9091C23.5147 69.9358 25.0024 68.6975 27.08 71.5614Z" fill="#FED9EA"/>
<path d="M14.5215 65.9061C17.2069 63.5723 20.284 61.2406 23.7442 58.9075C23.7168 64.7415 18.7673 64.604 14.5215 65.9061Z" fill="#FC9AC8"/>
<path d="M26.132 52.9102C26.1324 52.4654 26.1327 52.0206 26.1321 51.2422C26.131 50.9086 26.1339 50.4113 26.1353 50.1627C26.9384 49.662 27.74 49.4099 28.8375 49.0344C29.1334 49.9776 29.1333 51.0442 29.1333 52.5106C28.6894 52.9111 28.2455 52.9116 27.2177 52.9117C26.4666 52.9108 26.2993 52.9105 26.132 52.9102Z" fill="#FC99C6"/>
<path d="M25.8867 53.0774C26.2993 52.9106 26.4666 52.9109 26.8848 52.912C26.6817 53.5512 26.2276 54.1896 25.4528 54.869C25.3018 54.3549 25.4716 53.7997 25.8867 53.0774Z" fill="#FC9AC8"/>
<path d="M34.1353 21.3192C35.5677 22.2203 36.9993 23.5268 38.7844 24.8724C39.1349 25.6588 39.132 26.4063 38.7452 27.5315C32.6503 29.3574 32.4525 34.9266 30.1363 38.9123C30.1363 38.9123 29.6388 38.9168 29.3901 38.9202C30.0902 35.4806 31.0105 32.0294 31.9977 28.5975C32.6609 26.2924 33.4189 24.0146 34.1353 21.3192Z" fill="#F682B5"/>
<path d="M30.4844 38.8766C32.4525 34.9266 32.6503 29.3574 38.7444 27.9053C36.3624 31.5477 33.5974 35.1942 30.4844 38.8766Z" fill="#FD8CBE"/>
</svg>
